PathFileType	4	(X/Y/Z)	/Users/itak/Documents/Research/Walk-IL/dataset/trc/00326_00011.trc
DataRate	CameraRate	NumFrames	NumMarkers	Units	OrigDataRate	OrigDataStartFrame	OrigNumFrames
100.000000	100.000000	4	55	mm	100.000000	61	494
Frame#	Time	RPSI			LPSI			L3			STRN			T10			C7			CLAV			RBAK			LBAK			LSHO			LUPA			LAEL			LAOL			LWTS			LWPS			LFRA			LHPS			LHTS			RSHO			RUPA			RAEL			RAOL			RWTS			RWPS			RFRA			RIFD			RHTS			RHPS			RBHD			LFHD			RFHD			LBHD			LHIP			RHIP			RASI			LASI			LKNE			LTHI			LANK			LTIP			LTOE			LMT1			LMT5			LHEE			RKNE			RTHI			RANK			RTIP			RTOE			RMT1			RMT5			RHEE			LIFD			*53			*54			
		X1	Y1	Z1	X2	Y2	Z2	X3	Y3	Z3	X4	Y4	Z4	X5	Y5	Z5	X6	Y6	Z6	X7	Y7	Z7	X8	Y8	Z8	X9	Y9	Z9	X10	Y10	Z10	X11	Y11	Z11	X12	Y12	Z12	X13	Y13	Z13	X14	Y14	Z14	X15	Y15	Z15	X16	Y16	Z16	X17	Y17	Z17	X18	Y18	Z18	X19	Y19	Z19	X20	Y20	Z20	X21	Y21	Z21	X22	Y22	Z22	X23	Y23	Z23	X24	Y24	Z24	X25	Y25	Z25	X26	Y26	Z26	X27	Y27	Z27	X28	Y28	Z28	X29	Y29	Z29	X30	Y30	Z30	X31	Y31	Z31	X32	Y32	Z32	X33	Y33	Z33	X34	Y34	Z34	X35	Y35	Z35	X36	Y36	Z36	X37	Y37	Z37	X38	Y38	Z38	X39	Y39	Z39	X40	Y40	Z40	X41	Y41	Z41	X42	Y42	Z42	X43	Y43	Z43	X44	Y44	Z44	X45	Y45	Z45	X46	Y46	Z46	X47	Y47	Z47	X48	Y48	Z48	X49	Y49	Z49	X50	Y50	Z50	X51	Y51	Z51	X52	Y52	Z52	X53	Y53	Z53	X54	Y54	Z54	X55	Y55	Z55	

62	0.61	-1467.90771484375	982.1603393554688	105.3030166625977	-1474.919067382812	983.076171875	-23.71770095825195	-1475.676513671875	1031.224975585938	44.37616729736328	-1264.318481445312	1231.366455078125	18.71512031555176	-1503.401977539062	1148.607055664062	35.69752883911133	-1476.890991210938	1398.86669921875	13.94584941864014	-1315.447509765625	1353.84521484375	15.38579559326172	-1510.147827148438	1258.434936523438	86.80931091308594	-1487.69482421875	1359.022583007812	-87.05529022216797	-1404.511596679688	1381.069213867188	-146.2555236816406	-1416.018920898438	1258.5947265625	-210.9912719726562	-1387.1484375	1055.685913085938	-219.8762359619141	-1449.42578125	1039.785888671875	-164.8778991699219	-1280.74462890625	818.1368408203125	-173.7775268554688	-1321.14453125	805.1301879882812	-228.3839569091797	-1366.701782226562	952.2962036132812	-225.3656311035156	-1320.688354492188	734.9482421875	-222.6319122314453	-1256.624145507812	747.7938232421875	-191.3746490478516	-1413.708618164062	1394.92333984375	175.8695831298828	-1417.376831054688	1330.569213867188	241.5070953369141	-1391.301635742188	1062.572875976562	275.1509094238281	-1440.990478515625	1053.996337890625	194.459716796875	-1279.445556640625	837.9444580078125	215.2325592041016	-1307.073120117188	822.3707885742188	284.16650390625	-1362.109008789062	995.9154663085938	279.5122680664062	-1260.809936523438	665.1318969726562	223.6600646972656	-1247.939208984375	737.7974243164062	226.1879425048828	-1291.461669921875	739.0550537109375	279.85888671875	-1466.654907226562	1603.333129882812	79.21680450439453	-1281.416259765625	1637.027221679688	-12.64548492431641	-1306.707763671875	1636.108276367188	84.799072265625	-1455.770141601562	1595.2138671875	-64.84698486328125	-1393.570678710938	924.27294921875	-131.1670837402344	-1385.050170898438	928.0364379882812	209.5332183837891	-1279.791870117188	959.1605834960938	160.6670074462891	-1270.452514648438	954.9644165039062	-80.65340423583984	-1345.61669921875	468.0654296875	-121.5868988037109	-1348.017822265625	609.0114135742188	-129.4699249267578	-1442.715209960938	47.70613479614258	-108.4214935302734	-1391.849853515625	251.9790344238281	-125.1896362304688	-1234.3369140625	48.62096786499023	-54.37298965454102	-1301.9189453125	37.04028701782227	-10.97765731811523	-1316.279418945312	44.44468307495117	-124.1312103271484	-1475.146118164062	41.12918090820312	-39.60222625732422	-1352.74365234375	462.8532409667969	182.6372680664062	-1298.176147460938	709.1034545898438	190.5329895019531	-1426.049072265625	54.06459808349609	155.4065856933594	-1349.802612304688	342.7525329589844	167.4081573486328	-1236.690307617188	49.23369598388672	89.76482391357422	-1294.906616210938	43.26919937133789	53.71282958984375	-1323.046875	41.99776840209961	167.4611968994141	-1480.122192382812	52.93325042724609	112.2167816162109	-1270.845581054688	670.4364624023438	-169.3629760742188	nan	nan	nan	nan	nan	nan	
63	0.62	-1467.500610351562	982.1314086914062	105.4168014526367	-1474.582641601562	983.0252075195312	-23.65736961364746	-1475.332763671875	1031.242797851562	44.42495346069336	-1263.938232421875	1231.364868164062	18.67523384094238	-1503.034545898438	1148.589599609375	35.82590866088867	-1476.462524414062	1398.895141601562	14.13654708862305	-1314.980102539062	1353.783081054688	15.48022079467773	-1509.751831054688	1258.487915039062	87.04444885253906	-1487.28271484375	1359.01611328125	-86.85328674316406	-1404.113159179688	1381.080688476562	-146.1376647949219	-1415.759643554688	1258.611328125	-210.9343566894531	-1386.901489257812	1055.67431640625	-219.8145141601562	-1449.267211914062	1039.832763671875	-164.8638916015625	-1280.906982421875	817.8394775390625	-173.6582336425781	-1321.289428710938	805.0287475585938	-228.3218383789062	-1366.608520507812	952.2793579101562	-225.2990112304688	-1321.028442382812	734.8333740234375	-222.5941619873047	-1257.504028320312	747.1575317382812	-191.1885833740234	-1413.1142578125	1394.83447265625	175.9882507324219	-1416.756103515625	1330.4765625	241.6348876953125	-1390.696044921875	1062.4853515625	275.2798156738281	-1440.48388671875	1053.920166015625	194.6286010742188	-1278.927734375	837.8682250976562	215.1714477539062	-1306.35791015625	822.3207397460938	284.1007690429688	-1361.462280273438	995.8595581054688	279.5768432617188	-1260.17529296875	665.0834350585938	223.3912506103516	-1247.231811523438	737.76171875	226.1280059814453	-1290.749877929688	738.9728393554688	279.8344421386719	-1466.059204101562	1603.263671875	79.40955352783203	-1280.898193359375	1636.963500976562	-12.61709499359131	-1306.051391601562	1636.04052734375	84.84468841552734	-1455.294067382812	1595.149047851562	-64.70977783203125	-1393.353881835938	924.2391357421875	-131.1462097167969	-1384.467407226562	927.9578857421875	209.5484771728516	-1279.332275390625	959.0675659179688	160.6316223144531	-1270.124389648438	954.9382934570312	-80.67091369628906	-1345.265869140625	468.0342712402344	-121.6735076904297	-1347.691040039062	608.9749755859375	-129.4795989990234	-1442.814575195312	47.63777160644531	-108.5084762573242	-1391.627197265625	251.9250335693359	-125.2406463623047	-1234.415649414062	48.79906463623047	-54.4730339050293	-1301.962646484375	37.09180450439453	-11.02495193481445	-1316.341674804688	44.50048828125	-124.1636428833008	-1475.190307617188	41.10322570800781	-39.64005661010742	-1352.265502929688	462.8023681640625	182.6194763183594	-1297.513793945312	708.88037109375	190.2158966064453	-1426.05810546875	54.09894561767578	155.3775177001953	-1349.355712890625	342.7102355957031	167.3260955810547	-1236.700927734375	49.23606872558594	89.72278594970703	-1294.89697265625	43.21982574462891	53.67942428588867	-1323.083740234375	42.04484176635742	167.4464721679688	-1480.104370117188	52.93832015991211	112.1710052490234	-1271.994018554688	669.87646484375	-169.1166839599609	nan	nan	nan	nan	nan	nan	
64	0.63	-1467.064086914062	982.0916137695312	105.5352020263672	-1474.222778320312	982.9678344726562	-23.58599662780762	-1474.957153320312	1031.238891601562	44.50345230102539	-1263.521362304688	1231.361938476562	18.65947151184082	-1502.631713867188	1148.5712890625	35.99086380004883	-1475.990844726562	1398.923461914062	14.33344745635986	-1314.479614257812	1353.72412109375	15.5851879119873	-1509.317260742188	1258.544189453125	87.27819061279297	-1486.84423828125	1359.020141601562	-86.65227508544922	-1403.67431640625	1381.079833984375	-146.0163116455078	-1415.43994140625	1258.61767578125	-210.8664093017578	-1386.606811523438	1055.648071289062	-219.7257385253906	-1449.08740234375	1039.874145507812	-164.8441314697266	-1281.038696289062	817.52392578125	-173.4429321289062	-1321.423706054688	804.9071655273438	-228.2033386230469	-1366.4814453125	952.2443237304688	-225.1948089599609	-1321.3466796875	734.6947631835938	-222.4758453369141	-1258.6240234375	746.2772827148438	-190.8617401123047	-1412.483520507812	1394.73828125	176.1321868896484	-1416.115966796875	1330.372924804688	241.7676849365234	-1390.084228515625	1062.384521484375	275.3955688476562	-1439.9462890625	1053.844116210938	194.7733917236328	-1278.411987304688	837.7819213867188	215.0877532958984	-1305.656616210938	822.2398071289062	284.0213317871094	-1360.812377929688	995.8094482421875	279.6327514648438	-1259.5419921875	665.0467529296875	223.1189575195312	-1246.535034179688	737.710205078125	226.069580078125	-1290.0654296875	738.8736572265625	279.8128967285156	-1465.425659179688	1603.196533203125	79.61995697021484	-1280.360961914062	1636.899169921875	-12.59638977050781	-1305.366943359375	1635.983154296875	84.88694000244141	-1454.777587890625	1595.066040039062	-64.57201385498047	-1393.106567382812	924.203125	-131.1199340820312	-1383.87060546875	927.90478515625	209.5352020263672	-1278.851440429688	958.986328125	160.6110534667969	-1269.763793945312	954.8985595703125	-80.67144775390625	-1344.925659179688	467.9999389648438	-121.7275543212891	-1347.377807617188	608.9402465820312	-129.4819183349609	-1442.906616210938	47.58557891845703	-108.5798416137695	-1391.419799804688	251.8756256103516	-125.2744522094727	-1234.508911132812	48.97047805786133	-54.55584335327148	-1301.997436523438	37.13159561157227	-11.0610179901123	-1316.400268554688	44.56183242797852	-124.179557800293	-1475.229858398438	41.08061218261719	-39.67144393920898	-1351.786499023438	462.7530822753906	182.6183929443359	-1296.748291015625	708.596923828125	189.8193206787109	-1426.065185546875	54.13187408447266	155.3495941162109	-1348.915405273438	342.6669921875	167.2569427490234	-1236.713134765625	49.23287963867188	89.67817687988281	-1294.893188476562	43.17147445678711	53.63998413085938	-1323.111938476562	42.09526062011719	167.4212799072266	-1480.08447265625	52.94596099853516	112.1258926391602	-1273.382568359375	669.072509765625	-168.7296142578125	nan	nan	nan	nan	nan	nan	
65	0.64	-1466.599487304688	982.0448608398438	105.6574096679688	-1473.841186523438	982.906005859375	-23.49882698059082	-1474.549438476562	1031.214233398438	44.61468124389648	-1263.065307617188	1231.350952148438	18.6700439453125	-1502.193481445312	1148.5546875	36.18776702880859	-1475.470947265625	1398.9482421875	14.53641319274902	-1313.947265625	1353.666625976562	15.70249271392822	-1508.838745117188	1258.596801757812	87.50360870361328	-1486.378173828125	1359.036743164062	-86.45629119873047	-1403.194702148438	1381.0673828125	-145.8907470703125	-1415.055541992188	1258.6142578125	-210.7819366455078	-1386.271606445312	1055.608276367188	-219.6062316894531	-1448.886108398438	1039.910888671875	-164.8102264404297	-1281.142944335938	817.197509765625	-173.1377563476562	-1321.545654296875	804.7681884765625	-228.0280303955078	-1366.323120117188	952.1913452148438	-225.0498657226562	-1321.635986328125	734.5364379882812	-222.2796478271484	-1259.964233398438	745.1749877929688	-190.3975372314453	-1411.817993164062	1394.63525390625	176.3000335693359	-1415.460693359375	1330.259765625	241.9042205810547	-1389.466796875	1062.26953125	275.4932861328125	-1439.378540039062	1053.766235351562	194.8954162597656	-1277.896118164062	837.68505859375	214.9881896972656	-1304.974609375	822.1273803710938	283.9280700683594	-1360.159912109375	995.760986328125	279.6779479980469	-1258.91064453125	665.0181884765625	222.8547973632812	-1245.864135742188	737.63916015625	226.0095367431641	-1289.41357421875	738.7579956054688	279.7872009277344	-1464.751708984375	1603.130859375	79.850341796875	-1279.79638671875	1636.832885742188	-12.57703971862793	-1304.658203125	1635.937866210938	84.92981719970703	-1454.215942382812	1594.962524414062	-64.42192840576172	-1392.822265625	924.1651611328125	-131.0839080810547	-1383.26904296875	927.8795776367188	209.5057220458984	-1278.349487304688	958.9153442382812	160.6010589599609	-1269.38330078125	954.8403930664062	-80.65643310546875	-1344.596069335938	467.9620971679688	-121.7510528564453	-1347.079956054688	608.907470703125	-129.4774780273438	-1442.988403320312	47.5478630065918	-108.6352233886719	-1391.227905273438	251.8320159912109	-125.2927856445312	-1234.6103515625	49.12904739379883	-54.62130737304688	-1302.0234375	37.16049957275391	-11.08651256561279	-1316.453247070312	44.62490463256836	-124.1815567016602	-1475.264404296875	41.05983352661133	-39.69510269165039	-1351.305053710938	462.7026672363281	182.6300048828125	-1295.905639648438	708.2698364257812	189.3745574951172	-1426.069946289062	54.16279983520508	155.3233489990234	-1348.48388671875	342.6171569824219	167.1974182128906	-1236.725952148438	49.22414779663086	89.63210296630859	-1294.89599609375	43.1258430480957	53.59508514404297	-1323.131469726562	42.14711761474609	167.3871917724609	-1480.063354492188	52.95590209960938	112.0821685791016	-1274.991455078125	668.0465087890625	-168.2051849365234	nan	nan	nan	nan	nan	nan	
